<svg viewBox="0 0 40 40" xmlns="http://www.w3.org/2000/svg" xmlns:xlink="http://www.w3.org/1999/xlink" width="40.000000" height="40.000000" fill="none" customFrame="url(#clipPath_4)">
	<defs>
		<clipPath id="clipPath_4">
			<rect width="40.000000" height="40.000000" x="0.000000" y="0.000000" rx="4.000000" fill="rgb(255,255,255)" />
		</clipPath>
		<clipPath id="clipPath_5">
			<rect width="24.000000" height="24.000000" x="8.000000" y="8.000000" fill="rgb(255,255,255)" />
		</clipPath>
	</defs>
	<rect id="Button" width="40.000000" height="40.000000" x="0.000000" y="0.000000" rx="4.000000" />
	<g id="feather-icon / chevron-down" customFrame="url(#clipPath_5)">
		<rect id="feather-icon / chevron-down" width="24.000000" height="24.000000" x="8.000000" y="8.000000" fill="rgb(255,255,255)" fill-opacity="0" />
		<path id="Shape (Stroke)" d="M13.6464 16.6464C13.8417 16.4512 14.1583 16.4512 14.3536 16.6464L20 22.2929L25.6464 16.6464C25.8417 16.4512 26.1583 16.4512 26.3536 16.6464C26.5488 16.8417 26.5488 17.1583 26.3536 17.3536L20.3536 23.3536C20.1583 23.5488 19.8417 23.5488 19.6464 23.3536L13.6464 17.3536C13.4512 17.1583 13.4512 16.8417 13.6464 16.6464Z" fill="rgb(64.8125,64.8125,64.8125)" fill-rule="evenodd" />
	</g>
</svg>
